<svg version="1.1" id="Capa_1" xmlns="http://www.w3.org/2000/svg" xmlns:xlink="http://www.w3.org/1999/xlink" x="0px" y="0px" fill="#929292" width="50px" height="50px" viewBox="0 0 197.125 197.125" style="enable-background:new 0 0 197.125 197.125" xml:space="preserve">
    <g>
        <g>
            <path d="M97.56,32.957c9.221,0,16.697-7.379,16.697-16.48C114.256,7.379,106.779,0,97.56,0c-9.223,0-16.7,7.379-16.7,16.477
              C80.858,25.578,88.336,32.957,97.56,32.957z" />
            <path d="M77.589,109.982v78.211c0,4.935,3.956,8.932,8.889,8.932c4.934,0,8.891-3.997,8.891-8.932v-67.439h4.286v67.439
              c0,4.935,4.021,8.932,8.953,8.932s8.951-3.997,8.951-8.932v-78.116c-6.178,0.271-12.485,0.409-18.979,0.409
              C91.374,110.486,84.272,110.314,77.589,109.982z" />
            <path d="M168.507,83.581l-45.66-45.649c-1.629-1.628-3.838-2.544-6.141-2.544l-38.287,0.007c-2.303,0.002-4.512,0.913-6.141,2.542
              L26.62,83.583c-2.937,2.735-3.241,6.337-3.241,7.383c0,3.049,2.423,7.502,23.378,10.97c13.859,2.295,32.257,3.559,51.806,3.559
              c19.546,0,37.945-1.264,51.805-3.559c20.956-3.468,23.379-7.92,23.379-10.97C173.746,89.428,170.57,85.947,168.507,83.581z
               M147.673,79.573c-8.709-1.306-18.996-2.229-30.113-2.723V49.452L147.673,79.573z M77.589,49.452v27.491
              c-11.348,0.562-21.805,1.579-30.49,2.998L77.589,49.452z M32.667,93.454c0.866-0.281,1.682-0.764,2.371-1.453l5.78-5.78
              c8.316-1.817,20.673-3.485,36.771-4.287v18.064C54.912,98.869,39.659,96.023,32.667,93.454z M117.56,100.09V81.841
              c15.492,0.69,27.656,2.177,36.242,3.861L160.099,92c1.015,1.015,2.297,1.584,3.618,1.715
              C156.206,96.289,140.546,99.068,117.56,100.09z" />
        </g>
    </g>
</svg>